<?xml version="1.0" encoding="UTF-8" standalone="no"?><!DOCTYPE svg PUBLIC "-//W3C//DTD SVG 1.1//EN" "http://www.w3.org/Graphics/SVG/1.1/DTD/svg11.dtd"><svg width="100%" height="100%" viewBox="0 0 64 64" version="1.1" xmlns="http://www.w3.org/2000/svg" xmlns:xlink="http://www.w3.org/1999/xlink" xml:space="preserve" xmlns:serif="http://www.serif.com/" style="fill-rule:evenodd;clip-rule:evenodd;"><ellipse id="Logo_Circle" cx="32" cy="32" rx="31" ry="31.001" style="fill:url(#_Linear1);"/><path id="Fork" d="M13.336,14.481C13.869,14.387 14.141,14.894 14.141,14.894L15.513,22.673C15.513,22.673 15.723,23.171 16.26,23.077C16.796,22.982 16.866,22.434 16.866,22.434L15.494,14.655C15.494,14.655 15.523,14.112 16.14,14.004C16.757,13.895 17.063,14.379 17.063,14.379L18.524,22.667C18.917,24.18 18.089,25.962 17.235,26.496C16.375,27.033 16.551,27.541 16.551,27.541C16.551,27.541 19.247,38.374 20.166,41.535C21.702,46.819 19.078,47.044 19.078,47.044C19.078,47.044 16.536,47.729 16.172,42.239C15.954,38.955 14.783,27.853 14.783,27.853C14.783,27.853 14.774,27.316 13.782,27.105C12.797,26.896 11.41,25.504 11.261,23.948L9.8,15.659C9.8,15.659 9.922,15.1 10.539,14.991C11.155,14.883 11.368,15.383 11.368,15.383L12.74,23.162C12.74,23.162 12.993,23.653 13.529,23.558C14.066,23.463 14.093,22.923 14.093,22.923L12.722,15.144C12.722,15.144 12.804,14.574 13.336,14.481" style="fill:#fff;"/><path id="Spoon" d="M50.512,14.265C53.517,14.795 54.492,18.539 54.126,20.616C53.76,22.693 52.352,24.193 50.905,25.206C49.458,26.22 49.18,27.486 49.18,27.486L47.636,43.746C47.006,47.319 44.77,46.83 44.77,46.83C44.77,46.83 42.501,46.525 43.131,42.951L47.241,27.144C47.241,27.144 47.413,25.859 46.4,24.412C45.387,22.964 44.577,21.073 44.943,18.997C45.31,16.92 47.506,13.735 50.512,14.265" style="fill:#fff;"/><path d="M46.13,15.998L46.13,42.873C46.13,44.253 45.009,45.373 43.63,45.373L20.052,45.373C18.673,45.373 17.552,44.253 17.552,42.873L17.552,15.998C17.552,14.618 18.673,13.498 20.052,13.498L43.63,13.498C45.009,13.498 46.13,14.618 46.13,15.998Z" style="fill:#fff;stroke:#0e6e78;stroke-width:1.24px;"/><path d="M22.695,19.234L39.182,19.234" style="fill:none;fill-rule:nonzero;stroke:#117a82;stroke-width:1.65px;stroke-linecap:round;"/><path d="M22.695,24.882L39.182,24.882" style="fill:none;fill-rule:nonzero;stroke:#117a82;stroke-width:1.65px;stroke-linecap:round;"/><path d="M22.695,30.53L34.236,30.53" style="fill:none;fill-rule:nonzero;stroke:#117a82;stroke-width:1.65px;stroke-linecap:round;"/><path d="M31.841,42.234L38.406,42.234C40.144,42.234 41.554,40.823 41.554,39.085L41.554,37.237C41.554,37.237 41.528,36.882 41.828,36.582C42.144,36.267 42.476,36.309 42.476,36.309L49.284,36.309C51.245,36.309 52.836,37.9 52.836,39.861L52.836,46.949C52.836,48.909 51.245,50.501 49.284,50.501L14.398,50.501C12.437,50.501 10.845,48.909 10.845,46.949L10.845,39.861C10.845,37.9 12.437,36.309 14.398,36.309L21.206,36.309C21.206,36.309 21.538,36.267 21.854,36.582C22.154,36.882 22.127,37.237 22.127,37.237L22.127,39.085C22.127,40.823 23.538,42.234 25.276,42.234L31.841,42.234" style="fill:#fff;stroke:#0e7c86;stroke-width:1px;stroke-linecap:round;stroke-linejoin:round;stroke-miterlimit:1.5;"/><path d="M41.91,46.162L41.91,46.458C41.91,46.931 41.525,47.316 41.052,47.316L22.613,47.316C22.14,47.316 21.756,46.931 21.756,46.458L21.756,46.162C21.756,45.689 22.14,45.305 22.613,45.305L41.052,45.305C41.525,45.305 41.91,45.689 41.91,46.162Z" style="fill:#0e7c86;"/><defs><linearGradient id="_Linear1" x1="0" y1="0" x2="1" y2="0" gradientUnits="userSpaceOnUse" gradientTransform="matrix(46.780443,40.398456,-40.398456,46.780443,9.346209,10.959138)"><stop offset="0" style="stop-color:#028cf3;stop-opacity:1"/><stop offset="1" style="stop-color:#2feaa8;stop-opacity:1"/></linearGradient></defs></svg>