<?xml version="1.0" encoding="UTF-8" standalone="no"?><!DOCTYPE svg PUBLIC "-//W3C//DTD SVG 1.1//EN" "http://www.w3.org/Graphics/SVG/1.1/DTD/svg11.dtd"><svg width="100%" height="100%" viewBox="0 0 1100 359" version="1.1" xmlns="http://www.w3.org/2000/svg" xmlns:xlink="http://www.w3.org/1999/xlink" xml:space="preserve" xmlns:serif="http://www.serif.com/" style="fill-rule:evenodd;clip-rule:evenodd;"><ellipse id="Logo_Circle" cx="149.997" cy="179.5" rx="149.997" ry="150" style="fill:url(#_Linear1);"/><path id="Fork" d="M60.46,93.139C63.036,92.685 64.354,95.139 64.354,95.139L70.991,132.779C70.991,132.779 72.01,135.19 74.606,134.732C77.202,134.274 77.538,131.624 77.538,131.624L70.901,93.985C70.901,93.985 71.042,91.358 74.026,90.831C77.011,90.305 78.491,92.646 78.491,92.646L85.563,132.75C87.463,140.073 83.458,148.696 79.325,151.278C75.164,153.878 76.013,156.333 76.013,156.333C76.013,156.333 89.062,208.752 93.506,224.043C100.938,249.61 88.243,250.702 88.243,250.702C88.243,250.702 75.94,254.018 74.179,227.451C73.126,211.562 67.459,157.841 67.459,157.841C67.459,157.841 67.418,155.243 62.618,154.224C57.851,153.211 51.139,146.478 50.42,138.947L43.348,98.843C43.348,98.843 43.939,96.137 46.923,95.61C49.908,95.084 50.939,97.505 50.939,97.505L57.575,135.144C57.575,135.144 58.798,137.519 61.394,137.061C63.99,136.604 64.123,133.989 64.123,133.989L57.486,96.35C57.486,96.35 57.885,93.593 60.46,93.139" style="fill:#fff;"/><path id="Spoon" d="M240.338,92.097C254.88,94.661 259.598,112.776 257.826,122.825C256.055,132.874 249.244,140.133 242.242,145.036C235.239,149.939 233.896,156.066 233.896,156.066L226.424,234.742C223.375,252.033 212.554,249.665 212.554,249.665C212.554,249.665 201.576,248.189 204.625,230.899L224.512,154.412C224.512,154.412 225.346,148.195 220.443,141.192C215.539,134.189 211.623,125.039 213.394,114.99C215.166,104.941 225.796,89.533 240.338,92.097" style="fill:#fff;"/><g id="RecipeCard"><path d="M219.134,94.386L219.134,236.614C219.134,239.926 216.445,242.614 213.134,242.614L86.86,242.614C83.548,242.614 80.86,239.926 80.86,236.614L80.86,94.386C80.86,91.074 83.548,88.386 86.86,88.386L213.134,88.386C216.445,88.386 219.134,91.074 219.134,94.386Z" style="fill:#fff;stroke:#0e6e78;stroke-width:6px;"/><path d="M105.743,116.137L185.516,116.137" style="fill:none;fill-rule:nonzero;stroke:#117a82;stroke-width:7.98px;stroke-linecap:round;"/><path d="M105.743,143.466L185.516,143.466" style="fill:none;fill-rule:nonzero;stroke:#117a82;stroke-width:7.98px;stroke-linecap:round;"/><path d="M105.743,170.794L161.584,170.794" style="fill:none;fill-rule:nonzero;stroke:#117a82;stroke-width:7.98px;stroke-linecap:round;"/></g><g id="Tray"><path d="M149.997,216.839L181.761,216.839C190.17,216.839 196.997,210.012 196.997,201.603L196.997,192.663C196.997,192.663 196.87,190.945 198.322,189.494C199.849,187.966 201.455,188.169 201.455,188.169L234.398,188.169C243.884,188.169 251.586,195.87 251.586,205.357L251.586,239.652C251.586,249.138 243.884,256.84 234.398,256.84L65.595,256.84C56.109,256.84 48.408,249.138 48.408,239.652L48.408,205.357C48.408,195.87 56.109,188.169 65.595,188.169L98.539,188.169C98.539,188.169 100.145,187.966 101.672,189.494C103.123,190.945 102.997,192.663 102.997,192.663L102.997,201.603C102.997,210.012 109.824,216.839 118.233,216.839L149.997,216.839" style="fill:#fff;stroke:#0e7c86;stroke-width:7px;stroke-linecap:round;stroke-linejoin:round;stroke-miterlimit:1.5;"/><path d="M198.715,235.847L198.715,237.278C198.715,239.568 196.856,241.427 194.566,241.427L105.347,241.427C103.058,241.427 101.198,239.568 101.198,237.278L101.198,235.847C101.198,233.557 103.058,231.698 105.347,231.698L194.566,231.698C196.856,231.698 198.715,233.557 198.715,235.847Z" style="fill:#0e7c86;"/></g><g transform="matrix(1,0,0,1,-39.86752,15.657646)"><g transform="matrix(175,0,0,189,344.642963,232.805437)"><path d="M0.981,-0.223C0.99,-0.223 0.997,-0.219 1.002,-0.211C1.007,-0.203 1.009,-0.192 1.009,-0.178C1.009,-0.152 1.003,-0.131 0.99,-0.116C0.958,-0.077 0.926,-0.048 0.893,-0.026C0.86,-0.006 0.822,0.005 0.777,0.005C0.734,0.005 0.697,-0.007 0.666,-0.03C0.636,-0.053 0.607,-0.093 0.58,-0.15C0.558,-0.195 0.541,-0.229 0.528,-0.251C0.515,-0.272 0.503,-0.288 0.49,-0.297C0.478,-0.306 0.463,-0.312 0.445,-0.314C0.442,-0.3 0.435,-0.256 0.422,-0.182C0.417,-0.149 0.413,-0.128 0.412,-0.121C0.405,-0.08 0.392,-0.049 0.372,-0.028C0.352,-0.006 0.322,0.005 0.281,0.005C0.236,0.005 0.197,-0.008 0.163,-0.035C0.128,-0.061 0.102,-0.097 0.083,-0.144C0.064,-0.192 0.055,-0.245 0.055,-0.305C0.055,-0.417 0.074,-0.514 0.114,-0.595C0.152,-0.676 0.207,-0.739 0.278,-0.781C0.348,-0.825 0.429,-0.846 0.521,-0.846C0.585,-0.846 0.639,-0.836 0.682,-0.817C0.725,-0.798 0.757,-0.771 0.778,-0.737C0.8,-0.703 0.81,-0.665 0.81,-0.622C0.81,-0.585 0.801,-0.548 0.783,-0.512C0.766,-0.477 0.739,-0.445 0.704,-0.418C0.669,-0.391 0.626,-0.37 0.575,-0.357C0.607,-0.348 0.632,-0.334 0.649,-0.315C0.666,-0.296 0.684,-0.267 0.701,-0.23C0.72,-0.19 0.738,-0.161 0.757,-0.142C0.775,-0.123 0.796,-0.114 0.82,-0.114C0.841,-0.114 0.862,-0.121 0.881,-0.136C0.9,-0.15 0.925,-0.174 0.954,-0.209C0.962,-0.218 0.971,-0.223 0.981,-0.223ZM0.307,-0.315C0.284,-0.315 0.269,-0.32 0.261,-0.331C0.252,-0.342 0.248,-0.354 0.248,-0.367C0.248,-0.383 0.253,-0.396 0.264,-0.405C0.274,-0.414 0.286,-0.419 0.299,-0.419L0.324,-0.419C0.335,-0.484 0.345,-0.541 0.354,-0.588C0.363,-0.631 0.391,-0.653 0.438,-0.653C0.476,-0.653 0.495,-0.636 0.495,-0.602C0.495,-0.595 0.495,-0.589 0.494,-0.585L0.464,-0.419C0.5,-0.421 0.533,-0.43 0.562,-0.445C0.592,-0.46 0.616,-0.482 0.634,-0.509C0.651,-0.536 0.66,-0.567 0.66,-0.602C0.66,-0.644 0.646,-0.677 0.617,-0.701C0.588,-0.725 0.546,-0.737 0.491,-0.737C0.426,-0.737 0.369,-0.721 0.32,-0.689C0.271,-0.656 0.232,-0.608 0.205,-0.544C0.178,-0.481 0.164,-0.403 0.164,-0.312C0.164,-0.269 0.168,-0.233 0.177,-0.202C0.186,-0.171 0.196,-0.148 0.209,-0.133C0.222,-0.118 0.234,-0.11 0.245,-0.11C0.254,-0.11 0.261,-0.114 0.267,-0.123C0.272,-0.132 0.277,-0.146 0.28,-0.165L0.307,-0.315Z" style="fill:#358ea3;fill-rule:nonzero;"/></g><g transform="matrix(175,0,0,189,494.267963,232.805437)"><path d="M0.494,-0.223C0.503,-0.223 0.509,-0.219 0.514,-0.211C0.519,-0.203 0.522,-0.192 0.522,-0.178C0.522,-0.151 0.516,-0.131 0.503,-0.116C0.478,-0.086 0.444,-0.058 0.399,-0.033C0.353,-0.008 0.305,0.005 0.254,0.005C0.184,0.005 0.13,-0.014 0.091,-0.052C0.052,-0.09 0.033,-0.142 0.033,-0.208C0.033,-0.254 0.043,-0.297 0.062,-0.337C0.081,-0.376 0.108,-0.408 0.143,-0.431C0.177,-0.454 0.216,-0.466 0.259,-0.466C0.298,-0.466 0.329,-0.455 0.352,-0.431C0.375,-0.409 0.387,-0.377 0.387,-0.338C0.387,-0.292 0.37,-0.253 0.338,-0.22C0.305,-0.186 0.249,-0.16 0.17,-0.141C0.187,-0.11 0.218,-0.095 0.265,-0.095C0.295,-0.095 0.329,-0.105 0.367,-0.127C0.406,-0.147 0.439,-0.175 0.467,-0.209C0.475,-0.218 0.484,-0.223 0.494,-0.223ZM0.242,-0.368C0.217,-0.368 0.197,-0.354 0.179,-0.325C0.163,-0.296 0.154,-0.262 0.154,-0.221L0.154,-0.219C0.193,-0.228 0.224,-0.242 0.247,-0.261C0.27,-0.28 0.281,-0.301 0.281,-0.326C0.281,-0.339 0.278,-0.349 0.271,-0.356C0.264,-0.364 0.254,-0.368 0.242,-0.368Z" style="fill:#358ea3;fill-rule:nonzero;"/></g><g transform="matrix(175,0,0,189,562.167963,232.805437)"><path d="M0.239,0.005C0.174,0.005 0.123,-0.013 0.087,-0.051C0.05,-0.088 0.032,-0.136 0.032,-0.197C0.032,-0.251 0.043,-0.298 0.064,-0.339C0.085,-0.38 0.113,-0.411 0.147,-0.433C0.181,-0.455 0.217,-0.466 0.254,-0.466C0.291,-0.466 0.319,-0.455 0.34,-0.433C0.36,-0.412 0.37,-0.384 0.37,-0.35C0.37,-0.322 0.364,-0.298 0.352,-0.279C0.339,-0.26 0.323,-0.25 0.303,-0.25C0.29,-0.25 0.28,-0.253 0.273,-0.259C0.265,-0.265 0.261,-0.273 0.261,-0.284C0.261,-0.289 0.262,-0.294 0.263,-0.3C0.264,-0.306 0.265,-0.31 0.266,-0.313C0.269,-0.323 0.271,-0.332 0.271,-0.341C0.271,-0.35 0.269,-0.356 0.265,-0.361C0.26,-0.366 0.254,-0.368 0.246,-0.368C0.231,-0.368 0.216,-0.361 0.203,-0.348C0.19,-0.334 0.179,-0.315 0.171,-0.292C0.163,-0.269 0.159,-0.243 0.159,-0.215C0.159,-0.138 0.193,-0.099 0.26,-0.099C0.287,-0.099 0.317,-0.108 0.349,-0.127C0.38,-0.145 0.411,-0.172 0.442,-0.209C0.45,-0.218 0.459,-0.223 0.469,-0.223C0.478,-0.223 0.484,-0.219 0.489,-0.211C0.494,-0.203 0.497,-0.192 0.497,-0.178C0.497,-0.153 0.491,-0.132 0.478,-0.116C0.447,-0.077 0.409,-0.048 0.365,-0.026C0.322,-0.006 0.28,0.005 0.239,0.005Z" style="fill:#358ea3;fill-rule:nonzero;"/></g><g transform="matrix(175,0,0,189,625.692963,232.805437)"><path d="M0.179,-0.532C0.151,-0.532 0.13,-0.538 0.116,-0.551C0.102,-0.565 0.095,-0.583 0.095,-0.606C0.095,-0.629 0.104,-0.649 0.122,-0.664C0.141,-0.68 0.164,-0.688 0.191,-0.688C0.216,-0.688 0.236,-0.682 0.251,-0.67C0.266,-0.658 0.274,-0.641 0.274,-0.619C0.274,-0.592 0.265,-0.571 0.248,-0.555C0.231,-0.54 0.208,-0.532 0.179,-0.532ZM0.171,0.005C0.128,0.005 0.096,-0.01 0.076,-0.041C0.057,-0.072 0.047,-0.112 0.047,-0.163C0.047,-0.193 0.051,-0.232 0.059,-0.279C0.066,-0.326 0.076,-0.369 0.088,-0.41C0.094,-0.431 0.102,-0.446 0.112,-0.454C0.122,-0.462 0.138,-0.466 0.16,-0.466C0.194,-0.466 0.211,-0.455 0.211,-0.432C0.211,-0.415 0.205,-0.377 0.192,-0.316C0.176,-0.243 0.168,-0.193 0.168,-0.167C0.168,-0.147 0.171,-0.132 0.176,-0.121C0.181,-0.11 0.19,-0.105 0.203,-0.105C0.215,-0.105 0.23,-0.113 0.248,-0.13C0.266,-0.147 0.29,-0.173 0.32,-0.209C0.328,-0.218 0.337,-0.223 0.347,-0.223C0.356,-0.223 0.362,-0.219 0.367,-0.211C0.372,-0.203 0.375,-0.192 0.375,-0.178C0.375,-0.151 0.369,-0.131 0.356,-0.116C0.29,-0.035 0.228,0.005 0.171,0.005Z" style="fill:#358ea3;fill-rule:nonzero;"/></g><g transform="matrix(175,0,0,189,667.867963,232.805437)"><path d="M0.582,-0.223C0.591,-0.223 0.598,-0.219 0.603,-0.211C0.608,-0.203 0.61,-0.192 0.61,-0.178C0.61,-0.151 0.604,-0.131 0.591,-0.116C0.562,-0.081 0.531,-0.052 0.498,-0.029C0.466,-0.006 0.428,0.005 0.386,0.005C0.351,0.005 0.322,-0.008 0.3,-0.033C0.262,-0.008 0.222,0.004 0.181,0.005C0.172,0.134 0.153,0.241 0.122,0.328C0.091,0.414 0.046,0.457 -0.013,0.457C-0.049,0.457 -0.076,0.444 -0.093,0.418C-0.11,0.392 -0.119,0.356 -0.119,0.31C-0.119,0.245 -0.104,0.168 -0.074,0.082C-0.044,-0.006 0.002,-0.101 0.065,-0.206C0.065,-0.303 0.064,-0.371 0.063,-0.409C0.062,-0.428 0.07,-0.444 0.086,-0.455C0.102,-0.466 0.122,-0.472 0.146,-0.472C0.16,-0.472 0.17,-0.469 0.176,-0.464C0.183,-0.458 0.186,-0.447 0.187,-0.43C0.187,-0.413 0.187,-0.401 0.188,-0.393C0.209,-0.42 0.23,-0.439 0.251,-0.451C0.272,-0.462 0.294,-0.468 0.317,-0.468C0.354,-0.468 0.385,-0.453 0.409,-0.423C0.432,-0.393 0.444,-0.354 0.444,-0.305C0.444,-0.27 0.438,-0.235 0.427,-0.202C0.416,-0.169 0.4,-0.138 0.38,-0.111C0.394,-0.107 0.406,-0.105 0.415,-0.105C0.437,-0.105 0.458,-0.113 0.478,-0.129C0.498,-0.145 0.524,-0.172 0.555,-0.209C0.563,-0.218 0.572,-0.223 0.582,-0.223ZM0.186,-0.091C0.21,-0.096 0.232,-0.11 0.253,-0.131C0.273,-0.151 0.289,-0.177 0.301,-0.208C0.313,-0.24 0.319,-0.272 0.319,-0.306C0.319,-0.326 0.315,-0.341 0.307,-0.352C0.299,-0.362 0.288,-0.367 0.275,-0.367C0.251,-0.367 0.222,-0.342 0.188,-0.291C0.187,-0.262 0.187,-0.219 0.187,-0.162C0.187,-0.131 0.187,-0.108 0.186,-0.091ZM-0.005,0.359C0.013,0.359 0.028,0.32 0.04,0.241C0.052,0.163 0.06,0.066 0.063,-0.051C0.034,0.016 0.012,0.079 -0.005,0.14C-0.022,0.201 -0.03,0.252 -0.03,0.293C-0.03,0.314 -0.027,0.331 -0.022,0.342C-0.017,0.353 -0.012,0.359 -0.005,0.359Z" style="fill:#358ea3;fill-rule:nonzero;"/></g><g transform="matrix(175,0,0,189,751.167963,232.805437)"><path d="M0.494,-0.223C0.503,-0.223 0.509,-0.219 0.514,-0.211C0.519,-0.203 0.522,-0.192 0.522,-0.178C0.522,-0.151 0.516,-0.131 0.503,-0.116C0.478,-0.086 0.444,-0.058 0.399,-0.033C0.353,-0.008 0.305,0.005 0.254,0.005C0.184,0.005 0.13,-0.014 0.091,-0.052C0.052,-0.09 0.033,-0.142 0.033,-0.208C0.033,-0.254 0.043,-0.297 0.062,-0.337C0.081,-0.376 0.108,-0.408 0.143,-0.431C0.177,-0.454 0.216,-0.466 0.259,-0.466C0.298,-0.466 0.329,-0.455 0.352,-0.431C0.375,-0.409 0.387,-0.377 0.387,-0.338C0.387,-0.292 0.37,-0.253 0.338,-0.22C0.305,-0.186 0.249,-0.16 0.17,-0.141C0.187,-0.11 0.218,-0.095 0.265,-0.095C0.295,-0.095 0.329,-0.105 0.367,-0.127C0.406,-0.147 0.439,-0.175 0.467,-0.209C0.475,-0.218 0.484,-0.223 0.494,-0.223ZM0.242,-0.368C0.217,-0.368 0.197,-0.354 0.179,-0.325C0.163,-0.296 0.154,-0.262 0.154,-0.221L0.154,-0.219C0.193,-0.228 0.224,-0.242 0.247,-0.261C0.27,-0.28 0.281,-0.301 0.281,-0.326C0.281,-0.339 0.278,-0.349 0.271,-0.356C0.264,-0.364 0.254,-0.368 0.242,-0.368Z" style="fill:#358ea3;fill-rule:nonzero;"/></g><g transform="matrix(175,0,0,189,819.067963,232.805437)"><path d="M0.868,-0.64C0.868,-0.583 0.848,-0.535 0.808,-0.493C0.768,-0.452 0.71,-0.423 0.633,-0.405C0.674,-0.394 0.706,-0.375 0.727,-0.35C0.748,-0.324 0.759,-0.294 0.759,-0.261C0.759,-0.208 0.743,-0.163 0.71,-0.124C0.676,-0.085 0.628,-0.056 0.565,-0.035C0.502,-0.013 0.425,-0.003 0.336,-0.003C0.303,-0.003 0.276,-0.004 0.256,-0.006C0.255,0.013 0.247,0.027 0.232,0.036C0.217,0.045 0.197,0.05 0.173,0.05C0.149,0.05 0.133,0.045 0.123,0.034C0.115,0.023 0.111,0.008 0.112,-0.013C0.118,-0.106 0.13,-0.204 0.147,-0.306C0.164,-0.409 0.186,-0.508 0.213,-0.603C0.218,-0.62 0.227,-0.631 0.241,-0.638C0.255,-0.645 0.273,-0.648 0.296,-0.648C0.337,-0.648 0.357,-0.637 0.357,-0.614C0.357,-0.605 0.355,-0.594 0.351,-0.582C0.334,-0.53 0.316,-0.46 0.299,-0.37C0.282,-0.282 0.269,-0.197 0.262,-0.116C0.294,-0.113 0.32,-0.112 0.34,-0.112C0.433,-0.112 0.502,-0.126 0.545,-0.152C0.589,-0.179 0.611,-0.214 0.611,-0.256C0.611,-0.285 0.599,-0.31 0.574,-0.33C0.549,-0.35 0.507,-0.361 0.448,-0.363C0.435,-0.364 0.425,-0.367 0.42,-0.373C0.415,-0.379 0.412,-0.389 0.412,-0.402C0.412,-0.421 0.416,-0.437 0.424,-0.449C0.432,-0.461 0.447,-0.467 0.468,-0.468C0.515,-0.469 0.558,-0.476 0.597,-0.489C0.635,-0.502 0.665,-0.519 0.687,-0.542C0.709,-0.566 0.72,-0.592 0.72,-0.623C0.72,-0.662 0.701,-0.692 0.663,-0.715C0.625,-0.737 0.567,-0.748 0.488,-0.748C0.417,-0.748 0.348,-0.739 0.281,-0.721C0.214,-0.702 0.158,-0.679 0.111,-0.651C0.09,-0.638 0.072,-0.632 0.057,-0.632C0.045,-0.632 0.036,-0.636 0.03,-0.644C0.023,-0.653 0.02,-0.663 0.02,-0.676C0.02,-0.693 0.024,-0.707 0.03,-0.719C0.037,-0.731 0.054,-0.745 0.081,-0.76C0.137,-0.792 0.203,-0.817 0.278,-0.835C0.353,-0.853 0.43,-0.862 0.509,-0.862C0.63,-0.862 0.72,-0.842 0.779,-0.801C0.838,-0.76 0.868,-0.707 0.868,-0.64Z" style="fill:#358ea3;fill-rule:nonzero;"/></g><g transform="matrix(175,0,0,189,956.792963,232.805437)"><path d="M0.217,0.005C0.178,0.005 0.144,-0.005 0.117,-0.025C0.089,-0.044 0.068,-0.07 0.054,-0.102C0.04,-0.134 0.033,-0.168 0.033,-0.205C0.033,-0.256 0.043,-0.301 0.061,-0.341C0.081,-0.38 0.106,-0.411 0.139,-0.433C0.172,-0.456 0.208,-0.467 0.249,-0.467C0.288,-0.467 0.322,-0.457 0.35,-0.438C0.378,-0.418 0.399,-0.392 0.413,-0.36C0.427,-0.328 0.434,-0.294 0.434,-0.257C0.434,-0.206 0.424,-0.161 0.405,-0.121C0.386,-0.082 0.359,-0.051 0.327,-0.029C0.294,-0.006 0.257,0.005 0.217,0.005ZM0.228,-0.103C0.251,-0.103 0.27,-0.115 0.286,-0.14C0.301,-0.165 0.309,-0.201 0.309,-0.248C0.309,-0.285 0.302,-0.312 0.289,-0.331C0.276,-0.35 0.26,-0.359 0.241,-0.359C0.217,-0.359 0.197,-0.347 0.181,-0.323C0.166,-0.298 0.158,-0.262 0.158,-0.214C0.158,-0.176 0.165,-0.148 0.178,-0.13C0.191,-0.112 0.208,-0.103 0.228,-0.103Z" style="fill:#358ea3;fill-rule:nonzero;"/></g><g transform="matrix(175,0,0,189,1031.692963,232.805437)"><path d="M0.571,-0.193C0.58,-0.193 0.587,-0.189 0.592,-0.181C0.596,-0.173 0.599,-0.162 0.599,-0.148C0.599,-0.124 0.593,-0.103 0.582,-0.086C0.543,-0.025 0.487,0.005 0.414,0.005C0.383,0.005 0.355,-0.001 0.331,-0.013C0.306,-0.026 0.286,-0.044 0.271,-0.067C0.232,-0.02 0.187,0.004 0.136,0.004C0.099,0.004 0.07,-0.007 0.049,-0.028C0.028,-0.049 0.017,-0.078 0.017,-0.113C0.017,-0.146 0.025,-0.173 0.04,-0.194C0.055,-0.215 0.077,-0.225 0.105,-0.225C0.129,-0.225 0.141,-0.216 0.141,-0.198C0.141,-0.193 0.14,-0.183 0.139,-0.17L0.136,-0.132C0.136,-0.112 0.145,-0.102 0.162,-0.102C0.175,-0.102 0.187,-0.11 0.199,-0.124C0.21,-0.139 0.22,-0.16 0.228,-0.186C0.235,-0.212 0.239,-0.241 0.239,-0.272C0.239,-0.296 0.236,-0.316 0.23,-0.333C0.224,-0.349 0.217,-0.357 0.208,-0.357C0.201,-0.357 0.195,-0.355 0.192,-0.352C0.189,-0.348 0.185,-0.342 0.182,-0.333C0.178,-0.322 0.173,-0.314 0.166,-0.307C0.159,-0.301 0.148,-0.298 0.131,-0.298C0.116,-0.298 0.105,-0.303 0.096,-0.314C0.087,-0.324 0.083,-0.34 0.083,-0.361C0.083,-0.395 0.093,-0.422 0.114,-0.441C0.135,-0.46 0.161,-0.47 0.194,-0.47C0.222,-0.47 0.247,-0.463 0.27,-0.45C0.293,-0.436 0.31,-0.416 0.322,-0.39C0.342,-0.417 0.364,-0.437 0.39,-0.45C0.415,-0.463 0.439,-0.47 0.463,-0.47C0.489,-0.47 0.509,-0.464 0.522,-0.452C0.536,-0.44 0.543,-0.421 0.543,-0.394C0.543,-0.364 0.537,-0.341 0.526,-0.324C0.515,-0.306 0.501,-0.298 0.485,-0.298C0.47,-0.298 0.46,-0.301 0.455,-0.307C0.45,-0.313 0.446,-0.322 0.443,-0.333C0.442,-0.341 0.44,-0.347 0.437,-0.351C0.434,-0.355 0.43,-0.357 0.423,-0.357C0.415,-0.357 0.407,-0.349 0.398,-0.335C0.389,-0.32 0.381,-0.3 0.374,-0.275C0.368,-0.25 0.365,-0.225 0.365,-0.198C0.365,-0.168 0.372,-0.144 0.386,-0.126C0.399,-0.108 0.416,-0.099 0.435,-0.099C0.472,-0.099 0.508,-0.125 0.544,-0.178C0.551,-0.188 0.56,-0.193 0.571,-0.193Z" style="fill:#358ea3;fill-rule:nonzero;"/></g></g><defs><linearGradient id="_Linear1" x1="0" y1="0" x2="1" y2="0" gradientUnits="userSpaceOnUse" gradientTransform="matrix(226.352188,195.472259,-195.472259,226.352188,40.384026,77.691532)"><stop offset="0" style="stop-color:#028cf3;stop-opacity:1"/><stop offset="1" style="stop-color:#2feaa8;stop-opacity:1"/></linearGradient></defs></svg>