<svg xmlns="http://www.w3.org/2000/svg" viewBox="0 0 680 180" width="680" height="180"><defs><linearGradient id="GRAD" x1="0" y1="0" x2="1" y2="1"><stop offset="0" stop-color="#028cf3"/><stop offset="1" stop-color="#2feaa8"/></linearGradient></defs><circle cx="90" cy="90" r="80" fill="url(#GRAD)"/>
<g transform="translate(0,1.5)">
<g transform="rotate(-18 62 104)">
<rect x="52" y="50" width="5" height="17" rx="2.5" fill="#fff"/>
<rect x="59.5" y="50" width="5" height="17" rx="2.5" fill="#fff"/>
<rect x="67" y="50" width="5" height="17" rx="2.5" fill="#fff"/>
<rect x="52" y="63" width="20" height="9" rx="4" fill="#fff"/>
<rect x="58.5" y="70" width="7" height="34" rx="3.5" fill="#fff"/>
</g>
<g transform="rotate(18 118 104)">
<ellipse cx="118" cy="60" rx="10.5" ry="14" fill="#fff"/>
<rect x="114.5" y="70" width="7" height="34" rx="3.5" fill="#fff"/>
</g>
<rect x="64" y="54" width="52" height="58" rx="6" fill="#fff" stroke="#0E6E78" stroke-width="3"/>
<line x1="75" y1="70" x2="105" y2="70" stroke="#117A82" stroke-width="3" stroke-linecap="round"/>
<line x1="75" y1="82" x2="105" y2="82" stroke="#117A82" stroke-width="3" stroke-linecap="round"/>
<line x1="75" y1="94" x2="96" y2="94" stroke="#117A82" stroke-width="3" stroke-linecap="round"/>
<rect x="44" y="100" width="92" height="34" rx="8" fill="#fff" stroke="#0E6E78" stroke-width="3.5"/>
<rect x="64" y="110" width="52" height="16" rx="4" fill="none" stroke="#0E6E78" stroke-width="2.5"/>
</g><g transform="translate(0,110.29)scale(1.3)"><path d="M180.2 -13.692Q180.2 -24.612000000000002 183.308 -34.440000000000005Q184.064 -36.876000000000005 185.786 -38.010000000000005Q187.508 -39.144000000000005 190.616 -39.144000000000005Q192.296 -39.144000000000005 192.968 -38.724000000000004Q193.64 -38.304 193.64 -37.128Q193.64 -35.784 192.38 -31.080000000000002Q191.54 -27.720000000000002 191.036 -25.200000000000003Q190.532 -22.68 190.196 -18.984Q192.968 -26.208000000000002 196.41199999999998 -30.744Q199.856 -35.28 203.17399999999998 -37.212Q206.492 -39.144000000000005 209.264 -39.144000000000005Q214.724 -39.144000000000005 214.724 -33.684000000000005Q214.724 -32.592 213.96800000000002 -28.392000000000003Q213.296 -25.032 213.296 -24.192Q213.296 -21.252000000000002 215.39600000000002 -21.252000000000002Q217.748 -21.252000000000002 221.44400000000002 -24.948Q222.536 -26.040000000000003 223.712 -26.040000000000003Q224.804 -26.040000000000003 225.434 -25.074Q226.064 -24.108 226.064 -22.512Q226.064 -19.404 224.38400000000001 -17.64Q222.032 -15.204 218.882 -13.482000000000001Q215.732 -11.760000000000002 212.204 -11.760000000000002Q207.752 -11.760000000000002 205.442 -14.028Q203.132 -16.296 203.132 -20.16Q203.132 -21.42 203.38400000000001 -22.68Q203.552 -24.360000000000003 203.552 -24.948Q203.552 -26.292 202.628 -26.292Q201.368 -26.292 199.31 -23.478Q197.252 -20.664 195.236 -16.044Q193.22 -11.424000000000001 191.96 -6.300000000000001Q191.036 -2.3520000000000003 189.81799999999998 -0.9660000000000002Q188.6 0.42000000000000004 185.996 0.42000000000000004Q182.804 0.42000000000000004 181.502 -2.9400000000000004Q180.2 -6.300000000000001 180.2 -13.692Z" fill="#0E7C86"/><path d="M258.068 -14.952000000000002Q258.068 -11.592 256.472 -9.744Q253.364 -5.964 247.69400000000002 -2.7720000000000002Q242.024 0.42000000000000004 235.556 0.42000000000000004Q226.736 0.42000000000000004 221.86399999999998 -4.368Q216.992 -9.156 216.992 -17.472Q216.992 -23.268 219.428 -28.266000000000002Q221.864 -33.264 226.19 -36.20400000000001Q230.516 -39.144000000000005 235.976 -39.144000000000005Q240.848 -39.144000000000005 243.788 -36.246Q246.728 -33.348 246.728 -28.392000000000003Q246.728 -22.596 242.57 -18.438000000000002Q238.412 -14.280000000000001 228.5 -11.844000000000001Q230.6 -7.98 236.48 -7.98Q240.26 -7.98 245.09 -10.626000000000001Q249.92000000000002 -13.272 253.448 -17.556Q254.45600000000002 -18.732000000000003 255.716 -18.732000000000003Q256.808 -18.732000000000003 257.438 -17.724000000000004Q258.068 -16.716 258.068 -14.952000000000002ZM227.156 -18.564V-18.396Q232.112 -19.572000000000003 234.96800000000002 -21.924Q237.824 -24.276 237.824 -27.384Q237.824 -28.98 236.942 -29.946Q236.06 -30.912000000000003 234.548 -30.912000000000003Q231.44 -30.912000000000003 229.298 -27.300000000000004Q227.156 -23.688000000000002 227.156 -18.564Z" fill="#0E7C86"/><path d="M249.92 -16.548000000000002Q249.92 -23.352 252.608 -28.476Q255.296 -33.6 259.58 -36.372Q263.864 -39.144000000000005 268.568 -39.144000000000005Q273.188 -39.144000000000005 275.75 -36.414Q278.312 -33.684000000000005 278.312 -29.400000000000002Q278.312 -25.872 276.75800000000004 -23.436Q275.204 -21.0 272.684 -21.0Q271.088 -21.0 270.122 -21.756Q269.156 -22.512 269.156 -23.856Q269.156 -24.444000000000003 269.324 -25.200000000000003Q269.492 -25.956000000000003 269.576 -26.292Q269.996 -27.552000000000003 269.996 -28.644000000000002Q269.996 -29.736 269.45 -30.324Q268.904 -30.912000000000003 267.896 -30.912000000000003Q265.964 -30.912000000000003 264.284 -29.19Q262.604 -27.468 261.596 -24.528Q260.588 -21.588 260.588 -18.060000000000002Q260.588 -8.316 269.072 -8.316Q272.516 -8.316 276.506 -10.626000000000001Q280.496 -12.936 284.36 -17.556Q285.368 -18.732000000000003 286.628 -18.732000000000003Q287.72 -18.732000000000003 288.35 -17.724000000000004Q288.98 -16.716 288.98 -14.952000000000002Q288.98 -11.760000000000002 287.384 -9.744Q283.436 -4.872 277.93399999999997 -2.226Q272.432 0.42000000000000004 267.308 0.42000000000000004Q259.076 0.42000000000000004 254.498 -4.242Q249.92 -8.904 249.92 -16.548000000000002Z" fill="#0E7C86"/><path d="M286.124 -50.904Q286.124 -53.844 288.434 -55.818Q290.744 -57.792 294.188 -57.792Q297.296 -57.792 299.228 -56.28Q301.16 -54.768 301.16 -51.996Q301.16 -48.636 298.976 -46.662000000000006Q296.79200000000003 -44.688 293.18 -44.688Q289.652 -44.688 287.88800000000003 -46.32600000000001Q286.124 -47.964000000000006 286.124 -50.904ZM282.092 -13.692Q282.092 -17.472 283.058 -23.394000000000002Q284.024 -29.316000000000003 285.536 -34.440000000000005Q286.29200000000003 -37.128 287.552 -38.136Q288.812 -39.144000000000005 291.584 -39.144000000000005Q295.868 -39.144000000000005 295.868 -36.288000000000004Q295.868 -34.188 294.272 -26.544Q292.25600000000003 -17.304000000000002 292.25600000000003 -14.028Q292.25600000000003 -11.508000000000001 292.928 -10.164000000000001Q293.6 -8.82 295.196 -8.82Q296.708 -8.82 298.976 -10.920000000000002Q301.244 -13.020000000000001 305.024 -17.556Q306.032 -18.732000000000003 307.29200000000003 -18.732000000000003Q308.384 -18.732000000000003 309.014 -17.724000000000004Q309.644 -16.716 309.644 -14.952000000000002Q309.644 -11.592 308.048 -9.744Q299.732 0.42000000000000004 292.508 0.42000000000000004Q287.048 0.42000000000000004 284.57 -3.4440000000000004Q282.092 -7.308000000000001 282.092 -13.692Z" fill="#0E7C86"/><path d="M350.048 -14.952000000000002Q350.048 -11.592 348.452 -9.744Q344.84 -5.292000000000001 340.682 -2.4360000000000004Q336.524 0.42000000000000004 331.23199999999997 0.42000000000000004Q326.78 0.42000000000000004 324.008 -2.7720000000000002Q319.21999999999997 0.336 314.012 0.42000000000000004Q312.92 16.632 309.05600000000004 27.510000000000005Q305.192 38.388000000000005 297.716 38.388000000000005Q293.18 38.388000000000005 290.996 35.112Q288.812 31.836000000000002 288.812 26.040000000000003Q288.812 17.808 292.592 6.846Q296.372 -4.1160000000000005 304.268 -17.304000000000002Q304.268 -29.568 304.09999999999997 -34.356Q304.016 -36.792 306.03200000000004 -38.22Q308.048 -39.648 311.072 -39.648Q312.836 -39.648 313.634 -38.934Q314.432 -38.22 314.516 -36.120000000000005Q314.516 -34.02 314.6 -33.012Q317.288 -36.372 319.892 -37.842Q322.496 -39.312000000000005 325.436 -39.312000000000005Q330.14 -39.312000000000005 333.12199999999996 -35.532000000000004Q336.104 -31.752000000000002 336.104 -25.62Q336.104 -21.168000000000003 334.676 -16.968000000000004Q333.248 -12.768 330.728 -9.324Q332.492 -8.82 333.668 -8.82Q336.44 -8.82 338.96000000000004 -10.836Q341.48 -12.852 345.428 -17.556Q346.436 -18.732000000000003 347.696 -18.732000000000003Q348.788 -18.732000000000003 349.418 -17.724000000000004Q350.048 -16.716 350.048 -14.952000000000002ZM325.604 -25.704Q325.604 -28.224 324.596 -29.526000000000003Q323.58799999999997 -30.828000000000003 321.908 -30.828000000000003Q318.884 -30.828000000000003 314.6 -24.444000000000003Q314.516 -20.748 314.516 -13.608Q314.516 -9.744 314.432 -7.644Q317.456 -8.316 320.01800000000003 -10.962Q322.58 -13.608 324.092 -17.514000000000003Q325.604 -21.42 325.604 -25.704ZM304.09999999999997 -4.284000000000001Q300.488 4.1160000000000005 298.38800000000003 11.76Q296.288 19.404 296.288 24.612000000000002Q296.288 27.3 296.918 28.728Q297.548 30.156000000000002 298.388 30.156000000000002Q300.656 30.156000000000002 302.168 20.286Q303.68 10.416 304.09999999999997 -4.284000000000001Z" fill="#0E7C86"/><path d="M383.06 -14.952000000000002Q383.06 -11.592 381.464 -9.744Q378.356 -5.964 372.686 -2.7720000000000002Q367.01599999999996 0.42000000000000004 360.548 0.42000000000000004Q351.728 0.42000000000000004 346.856 -4.368Q341.984 -9.156 341.984 -17.472Q341.984 -23.268 344.41999999999996 -28.266000000000002Q346.856 -33.264 351.182 -36.20400000000001Q355.508 -39.144000000000005 360.96799999999996 -39.144000000000005Q365.84 -39.144000000000005 368.78 -36.246Q371.71999999999997 -33.348 371.71999999999997 -28.392000000000003Q371.71999999999997 -22.596 367.562 -18.438000000000002Q363.404 -14.280000000000001 353.49199999999996 -11.844000000000001Q355.592 -7.98 361.472 -7.98Q365.252 -7.98 370.082 -10.626000000000001Q374.912 -13.272 378.44 -17.556Q379.448 -18.732000000000003 380.70799999999997 -18.732000000000003Q381.8 -18.732000000000003 382.43 -17.724000000000004Q383.06 -16.716 383.06 -14.952000000000002ZM352.14799999999997 -18.564V-18.396Q357.104 -19.572000000000003 359.96 -21.924Q362.816 -24.276 362.816 -27.384Q362.816 -28.98 361.93399999999997 -29.946Q361.05199999999996 -30.912000000000003 359.53999999999996 -30.912000000000003Q356.432 -30.912000000000003 354.28999999999996 -27.300000000000004Q352.14799999999997 -23.688000000000002 352.14799999999997 -18.564Z" fill="#0E7C86"/><path d="M423.212 -21.924000000000003Q423.212 -19.824 422.624 -18.69Q422.036 -17.556 420.776 -17.136000000000003Q415.736 -15.372000000000002 409.688 -15.120000000000001Q408.008 -8.148 403.346 -3.864Q398.68399999999997 0.42000000000000004 393.056 0.42000000000000004Q384.572 0.42000000000000004 380.70799999999997 -6.048Q376.844 -12.516 376.844 -24.78Q376.844 -35.616 379.532 -48.342Q382.21999999999997 -61.068000000000005 387.38599999999997 -70.01400000000001Q392.552 -78.96000000000001 399.692 -78.96000000000001Q403.556 -78.96000000000001 405.908 -75.642Q408.26 -72.324 408.26 -67.03200000000001Q408.26 -60.144000000000005 405.656 -53.34Q403.052 -46.536 397.004 -39.06Q402.632 -38.64 406.15999999999997 -34.398Q409.688 -30.156000000000002 410.36 -23.94Q414.308 -24.192 419.768 -25.62Q420.272 -25.788 420.944 -25.788Q422.036 -25.788 422.624 -24.696Q423.212 -23.604000000000003 423.212 -21.924000000000003ZM387.932 -33.348Q393.476 -43.512 396.794 -51.282000000000004Q400.11199999999997 -59.05200000000001 400.11199999999997 -65.10000000000001Q400.11199999999997 -67.78800000000001 399.48199999999997 -69.21600000000001Q398.852 -70.644 397.76 -70.644Q396.08 -70.644 394.106 -65.646Q392.132 -60.648 390.452 -52.08Q388.772 -43.512 387.932 -33.348ZM400.7 -16.968Q398.096 -18.732000000000003 396.71000000000004 -21.588Q395.324 -24.444000000000003 395.324 -27.636000000000003Q395.324 -28.812 395.65999999999997 -30.828000000000003H395.408Q391.964 -30.828000000000003 389.654 -27.426000000000002Q387.344 -24.024 387.344 -18.312Q387.344 -13.524000000000001 389.15 -11.004000000000001Q390.956 -8.484 393.392 -8.484Q395.996 -8.484 398.012 -10.668Q400.028 -12.852 400.7 -16.968Z" fill="#0E7C86"/><path d="M461.096 -21.924000000000003Q461.096 -17.892 458.66 -17.136000000000003Q453.62 -15.372000000000002 447.572 -15.120000000000001Q445.976 -8.064 441.27200000000005 -3.822Q436.56800000000004 0.42000000000000004 430.60400000000004 0.42000000000000004Q425.564 0.42000000000000004 421.994 -2.016Q418.42400000000004 -4.452 416.576 -8.484Q414.728 -12.516 414.728 -17.220000000000002Q414.728 -23.604000000000003 417.164 -28.602000000000004Q419.6 -33.6 423.884 -36.414Q428.168 -39.228 433.37600000000003 -39.228Q439.76 -39.228 443.666 -34.818Q447.572 -30.408 448.244 -23.94Q452.192 -24.192 457.65200000000004 -25.62Q458.324 -25.788 458.82800000000003 -25.788Q459.92 -25.788 460.50800000000004 -24.696Q461.096 -23.604000000000003 461.096 -21.924000000000003ZM438.584 -16.968Q435.98 -18.732000000000003 434.59400000000005 -21.588Q433.208 -24.444000000000003 433.208 -27.636000000000003Q433.208 -28.98 433.46000000000004 -30.324H433.04Q429.68 -30.324 427.454 -27.090000000000003Q425.228 -23.856 425.228 -17.976000000000003Q425.228 -13.356000000000002 427.034 -10.920000000000002Q428.84000000000003 -8.484 431.276 -8.484Q433.964 -8.484 435.938 -10.668Q437.91200000000003 -12.852 438.584 -16.968Z" fill="#0E7C86"/><path transform="translate(-1,-2)" d="M505.112 -14.952000000000002Q505.112 -11.592 503.516 -9.744Q499.82000000000005 -5.376 495.4100000000001 -2.478Q491.00000000000006 0.42000000000000004 485.456 0.42000000000000004Q481.172 0.42000000000000004 477.85400000000004 -1.1760000000000002Q474.53600000000006 -2.7720000000000002 472.60400000000004 -5.712000000000001Q467.81600000000003 0.336 461.264 0.336Q456.644 0.336 453.956 -2.352Q451.26800000000003 -5.04 451.26800000000003 -9.492Q451.26800000000003 -13.692 453.20000000000005 -16.296Q455.132 -18.900000000000002 458.66 -18.900000000000002Q461.684 -18.900000000000002 461.684 -16.632Q461.684 -16.044 461.516 -14.532Q461.264 -11.508000000000001 461.264 -11.088000000000001Q461.264 -8.568000000000001 463.44800000000004 -8.568000000000001Q465.04400000000004 -8.568000000000001 466.514 -10.458000000000002Q467.98400000000004 -12.348 468.95000000000005 -15.624000000000002Q469.91600000000005 -18.900000000000002 469.91600000000005 -22.848000000000003Q469.91600000000005 -25.872 469.1600000000001 -27.93Q468.40400000000005 -29.988000000000003 467.312 -29.988000000000003Q466.38800000000003 -29.988000000000003 465.9680000000001 -29.526000000000003Q465.54800000000006 -29.064 465.12800000000004 -27.972Q464.624 -26.628 463.784 -25.83Q462.944 -25.032 460.84400000000005 -25.032Q458.99600000000004 -25.032 457.904 -26.334000000000003Q456.812 -27.636000000000003 456.812 -30.324Q456.812 -34.608000000000004 459.41600000000005 -37.044000000000004Q462.02000000000004 -39.480000000000004 466.136 -39.480000000000004Q469.66400000000004 -39.480000000000004 472.52000000000004 -37.758Q475.37600000000003 -36.036 476.88800000000003 -32.760000000000005Q479.408 -36.120000000000005 482.558 -37.800000000000004Q485.708 -39.480000000000004 488.732 -39.480000000000004Q492.00800000000004 -39.480000000000004 493.73 -37.968Q495.45200000000006 -36.456 495.45200000000006 -33.096000000000004Q495.45200000000006 -29.316000000000003 494.024 -27.174Q492.596 -25.032 490.58000000000004 -25.032Q488.732 -25.032 488.06000000000006 -25.788Q487.38800000000003 -26.544 487.052 -27.972Q486.884 -28.98 486.548 -29.484Q486.21200000000005 -29.988000000000003 485.372 -29.988000000000003Q484.36400000000003 -29.988000000000003 483.23 -28.098000000000003Q482.096 -26.208000000000002 481.298 -23.1Q480.50000000000006 -19.992 480.50000000000006 -16.632Q480.50000000000006 -12.684000000000001 482.39000000000004 -10.542000000000002Q484.28000000000003 -8.4 487.55600000000004 -8.4Q490.83200000000005 -8.4 493.73 -10.626000000000001Q496.62800000000004 -12.852 500.492 -17.556Q501.50000000000006 -18.732000000000003 502.76000000000005 -18.732000000000003Q503.85200000000003 -18.732000000000003 504.482 -17.724000000000004Q505.112 -16.716 505.112 -14.952000000000002Z" fill="#0E7C86"/></g></svg>